<?xml version="1.0" encoding="UTF-8"?>
<!DOCTYPE svg PUBLIC "-//W3C//DTD SVG 1.1//EN" "http://www.w3.org/Graphics/SVG/1.1/DTD/svg11.dtd">
<svg xmlns="http://www.w3.org/2000/svg" version="1.1" width="256px" height="256px" style="shape-rendering:geometricPrecision; text-rendering:geometricPrecision; image-rendering:optimizeQuality; fill-rule:evenodd; clip-rule:evenodd" xmlns:xlink="http://www.w3.org/1999/xlink">
<g><path style="opacity:0.98" fill="#ff9900" d="M 123.5,-0.5 C 126.167,-0.5 128.833,-0.5 131.5,-0.5C 133.144,0.316435 134.31,1.64977 135,3.5C 135.667,17.8333 135.667,32.1667 135,46.5C 130,51.8333 125,51.8333 120,46.5C 119.333,32.1667 119.333,17.8333 120,3.5C 120.69,1.64977 121.856,0.316435 123.5,-0.5 Z"/></g>
<g><path style="opacity:0.958" fill="#ff9900" d="M 39.5,34.5 C 42.6492,34.2114 45.6492,34.7114 48.5,36C 57,44.5 65.5,53 74,61.5C 77.5533,71.5739 74.0533,76.0739 63.5,75C 54,65.5 44.5,56 35,46.5C 33.4742,41.2389 34.9742,37.2389 39.5,34.5 Z"/></g>
<g><path style="opacity:0.962" fill="#ff9900" d="M 208.5,34.5 C 217.604,33.4378 221.438,37.4378 220,46.5C 211.531,55.9703 202.697,65.137 193.5,74C 183.426,77.5533 178.926,74.0533 180,63.5C 189.033,53.3013 198.533,43.6346 208.5,34.5 Z"/></g>
<g><path style="opacity:0.948" fill="#00abf7" d="M 131.5,255.5 C 128.833,255.5 126.167,255.5 123.5,255.5C 122.164,253.99 120.997,252.323 120,250.5C 119.667,239.167 119.333,227.833 119,216.5C 111.085,220.874 103.252,225.374 95.5,230C 88.7575,231.799 84.7575,229.299 83.5,222.5C 83.833,219.99 84.833,217.823 86.5,216C 97.4146,209.96 108.248,203.793 119,197.5C 119.833,179.158 119.666,160.824 118.5,142.5C 102.585,151.373 86.7521,160.373 71,169.5C 70.6667,182.5 70.3333,195.5 70,208.5C 67.5647,213.224 63.7314,214.724 58.5,213C 56.6667,212.5 55.5,211.333 55,209.5C 54.6224,199.79 53.7891,190.124 52.5,180.5C 43.9609,185.534 35.2942,190.367 26.5,195C 23.208,195.936 20.208,195.436 17.5,193.5C 16.6744,192.549 16.5078,191.549 17,190.5C 35.4807,179.348 53.9807,168.348 72.5,157.5C 76.5587,155.979 80.5587,154.146 84.5,152C 86.0629,151.241 87.0629,150.074 87.5,148.5C 113.969,133.765 140.302,118.765 166.5,103.5C 170.423,102.205 174.09,100.372 177.5,98C 179.063,97.2411 180.063,96.0744 180.5,94.5C 199.437,84.0729 218.271,73.4062 237,62.5C 237.772,62.6448 238.439,62.9781 239,63.5C 240.098,67.5052 239.265,71.0052 236.5,74C 227.167,79.3333 217.833,84.6667 208.5,90C 217.25,94.7899 225.75,99.9566 234,105.5C 237.215,114.58 234.048,118.747 224.5,118C 213.704,112.033 203.037,105.866 192.5,99.5C 176.371,108.467 160.371,117.633 144.5,127C 160.335,136.752 176.335,146.252 192.5,155.5C 203.003,149.081 213.67,142.914 224.5,137C 234.048,136.253 237.215,140.42 234,149.5C 225.58,154.292 217.413,159.458 209.5,165C 218.167,170 226.833,175 235.5,180C 239.212,182.602 240.378,186.102 239,190.5C 236.774,194.861 233.274,196.361 228.5,195C 219.5,189.833 210.5,184.667 201.5,179.5C 200.667,189.5 199.833,199.5 199,209.5C 196.487,213.212 192.987,214.378 188.5,213C 185.898,212.065 184.398,210.232 184,207.5C 183.934,194.832 183.934,182.165 184,169.5C 168,160.167 152,150.833 136,141.5C 135.167,160.509 135.334,179.509 136.5,198.5C 148.08,204.537 159.247,211.204 170,218.5C 171.664,227.166 168.164,231 159.5,230C 151.422,225.879 143.589,221.379 136,216.5C 135.667,228.167 135.333,239.833 135,251.5C 133.968,253.027 132.801,254.36 131.5,255.5 Z"/></g>
<g><path style="opacity:0.954" fill="#fe9900" d="M 180.5,94.5 C 180.063,96.0744 179.063,97.2411 177.5,98C 174.09,100.372 170.423,102.205 166.5,103.5C 149.3,80.7964 127.967,75.9631 102.5,89C 81.7621,105.02 76.7621,124.853 87.5,148.5C 87.0629,150.074 86.0629,151.241 84.5,152C 80.5587,154.146 76.5587,155.979 72.5,157.5C 58.4566,127.101 63.79,100.601 88.5,78C 115.071,59.8097 141.405,60.1431 167.5,79C 172.797,83.4548 177.13,88.6214 180.5,94.5 Z"/></g>
<g><path style="opacity:0.947" fill="#ff9900" d="M -0.5,131.5 C -0.5,128.833 -0.5,126.167 -0.5,123.5C 1.08167,121.03 3.41501,119.53 6.5,119C 18.8333,118.333 31.1667,118.333 43.5,119C 49.9638,120.756 52.1304,124.923 50,131.5C 48.8333,132.667 47.6667,133.833 46.5,135C 32.1667,135.667 17.8333,135.667 3.5,135C 2.29493,133.624 0.961599,132.458 -0.5,131.5 Z"/></g>
</svg>
